<svg width="37" height="25" viewBox="0 0 37 25" fill="none" xmlns="http://www.w3.org/2000/svg">
<path d="M5.27524 13.6765C2.54297 12.6201 3.15718 12.1399 5.27524 11.3369H31C31.5523 11.3369 32 11.7846 32 12.3369V12.6765C32 13.2288 31.5523 13.6765 31 13.6765H5.27524Z" fill="#61FE7A"/>
<path d="M5.27524 13.6765C2.54297 12.6201 3.15718 12.1399 5.27524 11.3369L18.1728 2.56303C17.6426 1.32556 16.9981 1.31983 15.6049 1.78313L1.19932 11.6825C0.621126 12.0799 0.621127 12.9335 1.19932 13.3309L15.6049 23.2303C17.2413 23.7471 17.7693 23.5392 18.1728 22.4504L5.27524 13.6765Z" fill="#61FE7A"/>
<path d="M19.5 15V25H36.5L36 0H19.5V9.99999H21V2.78314C21 2.23085 21.4477 1.78314 22 1.78314H33.5C34.0523 1.78314 34.5 2.23086 34.5 2.78314V22.2303C34.5 22.7826 34.0523 23.2303 33.5 23.2303H22C21.4477 23.2303 21 22.7826 21 22.2303V15H19.5Z" fill="#61FE7A"/>
</svg>
